<?xml version="1.0" encoding="UTF-8"?>
<!DOCTYPE svg PUBLIC "-//W3C//DTD SVG 1.1//EN" "http://www.w3.org/Graphics/SVG/1.1/DTD/svg11.dtd">
<!-- Creator: CorelDRAW -->
<svg xmlns="http://www.w3.org/2000/svg" xml:space="preserve" width="8.26772in" height="11.6929in" version="1.1" style="shape-rendering:geometricPrecision; text-rendering:geometricPrecision; image-rendering:optimizeQuality; fill-rule:evenodd; clip-rule:evenodd"
viewBox="0 0 8267.72 11692.91"
 xmlns:xlink="http://www.w3.org/1999/xlink"
 xmlns:xodm="http://www.corel.com/coreldraw/odm/2003">
 <defs>
  <style type="text/css">
   <![CDATA[
    .fil0 {fill:#7C9D66}
   ]]>
  </style>
 </defs>
 <g id="Layer_x0020_1">
  <metadata id="CorelCorpID_0Corel-Layer"/>
  <path class="fil0" d="M4884.56 5008.15c397.06,-124.5 191.47,1259.03 1075.49,1184.76 589.15,-49.5 571.9,-31.5 310.74,-763.83 -277.52,-778.22 -302.07,-804.15 -1060.45,-738.02 -129.22,11.27 -225.66,15.56 -298.1,1.85 -26.89,-2.16 -51.89,-4.67 -72,-6.74l0.2 1.44c-43.89,-7.79 -78.67,-9.21 -99.79,-10.08 -32.7,-1.34 -32.7,-1.34 -23.41,12.59 9.28,13.93 27.86,41.79 56.64,95.81 28.78,54.02 67.77,134.19 87.26,174.27 7.37,15.17 11.97,24.59 20.93,29.79l2.5 18.17z"/>
  <path class="fil0" d="M4934.11 6162.29c-12.93,-89.81 -138.73,-369.25 -178.83,-465.81 -60.13,-144.81 -126.75,-306.46 -184.87,-454.13 -119.49,-303.58 -230.81,-582.03 -369.26,-909.32 -118.2,-279.41 -240.97,-705.47 -439.31,-839.56 -172.04,-116.31 -272.13,-114.5 -525.97,-114.48 -215.22,0.02 -430.48,-0.65 -645.68,0.17 9.47,94.26 307.56,783.48 363.96,921.66l552.56 1366.82c68.39,167.02 113.85,286.34 255.5,382.71 180.84,123.03 291.35,112.87 529.22,112.85 213.22,-0.01 429.96,3.75 642.69,-0.92z"/>
  <path class="fil0" d="M3224.63 6161.94c-8.79,-84.68 -269.22,-757.27 -331.57,-843.55 -185.36,-256.52 -569.61,-282.81 -795.03,-58.06 -241.67,240.96 -197.22,594.32 55.71,799.08 131.43,106.4 271.22,103.85 482.6,103.8 196.07,-0.05 392.28,1.85 588.28,-1.27z"/>
  <path class="fil0" d="M4749.46 4380.75c8.79,-84.68 269.22,-757.27 331.57,-843.55 185.36,-256.52 569.61,-282.81 795.03,-58.06 241.67,240.96 197.22,594.32 -55.71,799.08 -131.43,106.4 -271.22,103.85 -482.6,103.8 -196.07,-0.05 -392.28,1.85 -588.28,-1.27z"/>
 </g>
</svg>
