<?xml version="1.0" encoding="UTF-8"?>
<!DOCTYPE svg PUBLIC "-//W3C//DTD SVG 1.1//EN" "http://www.w3.org/Graphics/SVG/1.1/DTD/svg11.dtd">
<!-- Creator: CorelDRAW -->
<svg xmlns="http://www.w3.org/2000/svg" xml:space="preserve" width="8.26772in" height="11.6929in" version="1.1" style="shape-rendering:geometricPrecision; text-rendering:geometricPrecision; image-rendering:optimizeQuality; fill-rule:evenodd; clip-rule:evenodd"
viewBox="0 0 8267.72 11692.91"
 xmlns:xlink="http://www.w3.org/1999/xlink"
 xmlns:xodm="http://www.corel.com/coreldraw/odm/2003">
 <defs>
  <style type="text/css">
   <![CDATA[
    .str0 {stroke:#2B2B2A;stroke-width:6.94;stroke-miterlimit:2.61313}
    .fil0 {fill:#15261E}
    .fil1 {fill:#7C9D66}
   ]]>
  </style>
 </defs>
 <g id="Layer_x0020_1">
  <metadata id="CorelCorpID_0Corel-Layer"/>
  <rect class="fil0 str0" x="-1868.48" y="2069.18" width="11258.38" height="6320.49"/>
  <g id="_105553296549664">
   <path class="fil1" d="M4073.87 5150.93c209.46,-65.68 101,664.18 567.35,624.99 310.79,-26.11 301.69,-16.61 163.93,-402.94 -146.4,-410.54 -159.35,-424.21 -559.42,-389.32 -68.17,5.94 -119.04,8.2 -157.26,0.97 -14.19,-1.14 -27.37,-2.46 -37.98,-3.56l0.1 0.76c-23.15,-4.11 -41.5,-4.86 -52.64,-5.32 -17.25,-0.71 -17.25,-0.71 -12.35,6.64 4.9,7.35 14.7,22.05 29.88,50.54 15.18,28.5 35.75,70.79 46.04,91.93 3.89,8 6.31,12.98 11.04,15.72l1.32 9.59z"/>
   <path class="fil1" d="M4100 5759.77c-6.82,-47.37 -73.19,-194.79 -94.33,-245.73 -31.72,-76.39 -66.87,-161.67 -97.53,-239.57 -63.03,-160.15 -121.76,-307.04 -194.8,-479.69 -62.35,-147.39 -127.12,-372.16 -231.75,-442.89 -90.76,-61.36 -143.56,-60.4 -277.47,-60.39 -113.54,0.01 -227.09,-0.34 -340.61,0.09 5,49.72 162.24,413.31 192,486.2l291.49 721.04c36.07,88.11 60.06,151.06 134.78,201.89 95.4,64.9 153.7,59.54 279.18,59.54 112.48,-0 226.82,1.98 339.04,-0.49z"/>
   <path class="fil1" d="M3198.2 5759.59c-4.64,-44.67 -142.02,-399.48 -174.91,-445 -97.78,-135.32 -300.48,-149.19 -419.4,-30.63 -127.48,127.11 -104.04,313.52 29.39,421.54 69.34,56.13 143.08,54.78 254.59,54.76 103.43,-0.03 206.94,0.98 310.33,-0.67z"/>
   <path class="fil1" d="M4002.6 4819.96c4.64,-44.67 142.02,-399.48 174.91,-445 97.78,-135.32 300.48,-149.19 419.4,-30.63 127.48,127.11 104.04,313.52 -29.39,421.54 -69.33,56.13 -143.07,54.78 -254.59,54.76 -103.43,-0.03 -206.94,0.98 -310.33,-0.67z"/>
  </g>
 </g>
</svg>
