<svg xmlns="http://www.w3.org/2000/svg" viewBox="0 0 1126.01 1176.67"><g id="Layer_2" data-name="Layer 2"><g id="Layer_1-2" data-name="Layer 1"><path d="M1114.25,895.27c-6.31,3.65-11.14,9.76-17.28,13.81-4.2,2.76-9.59,3.71-14.44,5.48-1.6-5-5-10.24-4.38-15a79.75,79.75,0,0,1,7-23.21c4.09-8.88,6.9-18.35-4.42-21.28-3.89-1-11.29,9.15-16.07,15-2.08,2.55-.85,7.53-2.41,10.81-6.35,13.47-12.8,26.93-20.18,39.84-1.65,2.89-7.2,3.57-10.95,5.26-1.44-4.31-5-9.2-3.94-12.83,2.49-8.87,7.73-16.94,10.63-25.74s4.42-18.36,6.53-27.56l-6-2.28c-3.63,3.06-9.36,5.47-10.53,9.28-7.24,23.65-29.78,30.8-46.87,43.15-10.23,7.39-24,10.46-36.6,13.71-3.75,1-9-4.06-13.63-6.35,3.61-3.47,6.66-8.26,11-10.09,5.6-2.37,13.64-.48,18.06-3.81,8.77-6.61,20.1-14.55,22.25-23.82,2-8.48-5.25-26.48-11.11-27.73-10.1-2.16-24.36,2.76-33.13,9.54-15.48,12-28.1,27.62-42,41.66-16.53,16.71-33,33.5-49.81,49.92-4,4-9.39,6.56-14.14,9.79l-4.23-3.12c1.79-5.35,3.48-10.73,5.41-16,8.27-22.83,17.36-45.39,24.74-68.5,10.57-33.05,19.08-66.76,30-99.67,8.23-24.72,19.83-48.3,28.29-73,12.35-36,22.22-72.83,35-108.64,12.54-35,27.46-69.23,41.3-103.81,7.65-19.15-2-31.66-22.47-27.58-10.23,2-20.31,6.5-29.41,11.7-4.22,2.41-5.94,9.19-8.79,14,5.61,1,11.18,2.65,16.83,2.92,3.59.18,8.75-3.56,10.61-2.14,4.08,3.1,10,9.46,9,12.58-4.74,15.14-11.91,29.49-17.48,44.4q-22.45,60.12-44.25,120.52c-11.66,32.49-22.23,65.38-34.18,97.77C862.13,792,847,818.51,840.53,847c-8.51,37.35-33.33,52.92-65.91,62.13-4,1.12-12.07-.65-13-3.1-1.6-4.14-.08-10.4,2-14.85,3.42-7.16,9.17-13.2,12.59-20.34,7.6-15.85,2.18-31.59-11.91-36.93-13.69-5.19-28.27,3.76-34.22,19.47a436.64,436.64,0,0,1-19.52,43.37c-1.19,2.34-7.74,3.49-11.14,2.6-2-.53-4.16-6.33-3.72-9.38,1.25-8.62,4.92-17,5.45-25.56.34-5.43-1.88-12.53-5.62-16.1-2.13-2-9.77,1.1-14.67,2.7a122.1,122.1,0,0,0-18.57,7.61c-13.51,7.1-26.79,14.64-40.09,22.14-5.55,3.13-10.88,6.63-16.31,10-1.69-5.64-2.91-11.48-5.17-16.88-3.86-9.19-6.06-22.1-13.16-26.2-10.53-6.08-22.6-1.63-30.25,10.63-5.06,8.13-11.89,11.11-18.69.15-2.58-4.17-9.91-10.33-11.21-9.51-5.92,3.74-15.17,10.13-14.71,14.71,2.19,21.43-14.41,27-27.07,36.08-8.1,5.81-16.37,11.45-24.91,16.57-4.3,2.57-9.4,3.81-14.13,5.66.6-5.08.51-10.36,1.94-15.18,4.07-13.69,9.41-27,12.81-40.89.91-3.72-2.86-9.06-5.56-12.9-.76-1.08-6.83-.52-8,1.08-19.32,26.27-33.15,54.93-32.53,88.29.27,13.85,12.47,20.8,25.65,14.66,11.17-5.21,20.88-13.51,31.37-20.23,8.38-5.36,17-10.4,24-14.68l14.07,22.54c5.29-4.63,11.16-8.74,15.72-14,10.17-11.71,19.31-24.32,29.65-35.87,3.26-3.64,9-5.09,13.6-7.53,1.51,5,5,10.54,4,15-1.7,7.59-7.33,14.27-9.31,21.85-1.49,5.74.11,12.28.33,18.46,5.55-.83,11.79-.35,16.48-2.81,7.64-4,13.71-11.24,21.53-14.58,4.46-1.91,14.89-.43,16,2.3,4.57,10.83,11.39,13.09,22.22,12.43,3.46-.2,10.8,7,10.42,10-1.67,13.27-30.47,35-44.42,34.43-22.45-.95-44.94-1.88-67.29-4-57.58-5.47-115.28-10.27-172.58-17.93-33.16-4.43-65.62-14.08-98.46-21-39.85-8.45-78.15-20.88-113-42.48-24.2-15-25.85-26.36-5.61-47.52,39.59-41.37,90.35-66.49,140.33-91.8,51.7-26.17,107.86-38.26,165.75-42.34,4.85-.34,13.64-6.86,13.19-8.86a35.21,35.21,0,0,0-10.25-17.28c-3.13-2.89-9.76-3.84-14.35-3-39.15,7-79,11.87-117.06,22.87-49.85,14.41-96.67,37.06-139.9,66.42-2.87,2-7.9.74-11.92,1,.13-4.6-.94-9.69.67-13.71,2.94-7.41,9.82-14,10.57-21.31.58-5.83-4.19-14.09-9.16-17.94-3.58-2.77-13.8-2.41-16.87.69A79.81,79.81,0,0,0,143.41,752c-13.7,34.34-26.57,69-39,103.86-5.13,14.38-8.27,29.46-12.42,44.19-8.52,30.3-18.37,60.33-24.68,91.09-1.37,6.66,8.14,18.9,15.71,23.23,10.72,6.13,16.94-4.14,20-13.43,2.11-6.32,1.86-13.38,3.27-20,3.76-17.59,7.3-35.26,12-52.61,3.68-13.61,10.73-17.19,22.74-6.23a66.18,66.18,0,0,0,24,14.17c46.88,14.56,93.54,30.52,141.31,41.45,45.48,10.41,92.06,16.85,138.49,22,44,4.92,88.52,6.09,132.83,8.63,12.5.71,14.18,6.64,8.05,15.74-14.91,22.13-30.05,44.14-35.8,70.76-2.95,13.67-9.16,28.66-6,41,3.32,13,13.75,27.89,25.32,34.17,14.56,7.91,24.19-7.86,32.59-18.63,24.48-31.42,37.07-68.17,46.13-106.2,6-25,17.91-36.12,43.27-37.1,10-.38,20.25.59,30-1.19,7-1.27,19.25-7.22,18.88-9.17-2-10.52-7.45-19.91-21.23-18.43-10,1.06-20,2.11-30,2.45-10.45.35-17.69-5-10.11-14.57,13.31-16.84,28.52-32.29,44.05-47.17,3.07-2.94,11.17-.65,16.94-.77-1.42,5.1-1.63,11-4.48,15.14-8.33,12-8.83,33.9.08,39.73,12.12,7.95,33.06,1.88,41-12.15,2.12-3.75,4.61-8.12,4.52-12.16-.4-18.22,12.49-21.87,31.83-28.07-4.38,15.83-9.29,26.77-9.94,38-.56,9.8.52,24.57,6.6,28.64,7.53,5.06,21.17,2.66,31.75.91,5.31-.88,10-7.16,14.4-11.53,11.12-11,21.37-23,33.17-33.14,4.73-4.08,15.69-8.33,18.58-6,24.62,19.74,47.48,9.13,69.5-3.23,10.88-6.11,16.84-7,24.75,4,5,7,13.81,12.44,22,15.81,12.81,5.24,15.12,12,7.28,22.77a156.46,156.46,0,0,1-12.89,16.08c-39.38,41.31-69,89.32-95.28,139.45-6.44,12.26-7,26.64,4.63,36.28,12.18,10.09,28.41,8.62,37.75-2.27,18.53-21.59,37.34-44.19,49.76-69.45,14.89-30.31,22.86-64,34.64-95.9,3.83-10.37,8.67-21.08,15.71-29.4,18.76-22.21,39.13-43.07,58.41-64.86,2.25-2.54,1.71-7.55,2.46-11.41C1122,896,1117,893.68,1114.25,895.27ZM632,1032.09c-13.36,31.14-27.13,62.14-41.7,92.73-3.2,6.71-10.17,11.62-15.4,17.36-2.8-7.54-5.58-15.09-7.45-20.16,4.6-34.82,19.91-60.7,38.4-85.15,3.76-5,6.95-10.65,11.63-14.52,3.6-3,9.14-3.62,13.82-5.3C631.63,1022.1,633.78,1027.94,632,1032.09Zm10.11-117.82c-.57.35-8-8.28-7.55-8.74a171.17,171.17,0,0,1,18.87-18.24c.32-.27,4.56,4.08,11.61,10.51C656.62,904.09,649.65,909.64,642.11,914.27ZM960.9,866.44c9.7,5.95,4,21,4,21S930.55,900.3,930.2,891C929.33,867.68,960.9,866.44,960.9,866.44Zm22.93,240.67c-5,10.61-12.3,20.32-19.74,29.48-2.32,2.86-8.45,2.64-12.82,3.83-.83-4-3.73-9.29-2.15-11.76,13.67-21.5,28.14-42.5,42.38-63.64l6.25,2.49C993.22,1080.76,989.76,1094.51,983.83,1107.11Z"/><path d="M500.16,805.1,467.65,836c-5.79-7.21-14.51-13.65-16.7-21.82-3.16-11.84,11.8-29.28,21.56-26.61C480.49,789.77,487.2,796.6,500.16,805.1Z"/><path d="M872.07,57.86c-14.79-4.63-16.29,11.86-19.89,21.43-21.78,58-42.72,116.33-64,174.52-5.11,13.95-12.53,27.38-15.46,41.73-3.67,18-13.35,26.77-30.47,30.94-11.31,2.74-22.35,7.44-32.8,12.69-15.54,7.81-30.12,17.53-45.72,25.2-12.95,6.37-20.4.39-21.62-13.35a39,39,0,0,1,1.3-12.82c3.75-14.63-3-19.53-16.65-19.18-18.41.47-33,6.88-45.92,21-14.54,16-32,29.29-48.22,43.76L526.79,380c2.07-13.07,5.09-26.1,5.78-39.24.33-6.36-3.73-12.95-5.81-19.45-4.79,4.91-11.07,9-14.12,14.86-10.34,19.75-19.22,40.26-29.5,60-1.55,3-7.61,3.59-11.58,5.3-.17-3.93-1.65-8.39-.29-11.69,6.32-15.43,14.11-30.29,19.82-45.91,1.6-4.36-2.1-10.64-3.37-16.05-5,1.28-11.15,1.21-14.74,4.19-4,3.36-6,9.36-8.51,14.39-9.08,18.21-23.16,21-42.26,7.39,9.08-20,19.38-39.84,27.15-60.59,12.23-32.62,22-66.18,34.19-98.82,20-53.5,43.94-105.78,52.87-162.71,1.52-9.7-.7-23.61-6.94-29.62-4.33-4.18-21.81-1.61-27.74,4-23.88,22.41-47.68,45.54-67.52,71.45-29.08,38-55.59,78-81.66,118.13-41.33,63.63-81.28,128.14-122.13,192.06-3.85,6-9.18,12.37-15.37,15.28-9.85,4.65-21.84,4.92-31.46,9.86C146.05,432.1,107.43,450,72.34,473.17,35.7,497.33,12.46,534.54,4.72,577.44-.89,608.51-5.66,642,16.21,671.06c9,12,20.63,16.86,32.32,8.27,19.26-14.13,38.4-29.29,54.21-47,17.33-19.42,31.82-41.62,45.79-63.72,27.57-43.6,53.53-88.21,81.15-131.79,5.24-8.27,14.06-17.42,22.91-19.72,35.51-9.21,71.63-16.09,107.63-23.29,6-1.2,12.55.37,20.44.73-12.85,35.48-24.57,68-36.45,100.52-7.91,21.63-17.46,42.79-23.49,64.91-2.77,10.16-2.07,23.92,2.89,32.81,6,10.71,18.57,13.65,31.24,5.87,3.1-1.9,8.23-.51,12.42-.63.05,4.62,1.3,9.64-.06,13.8-4.09,12.54-4.67,26.4,8.34,30.75,10.07,3.37,23.2-1.39,34.7-3.83,3.64-.77,6.2-6,9.57-8.72,34.34-28.28,45.71-70.42,58.17-109a319.47,319.47,0,0,1,64.7-114.23c2.92-3.35,8.34-7.4,11.69-6.71,3.14.64,6.22,6.83,7.36,11.1,5.53,20.76,18.38,28,37.27,17.76,12.26-6.67,23.41-16.26,33.26-26.3,16.78-17.08,32.7-16.44,50.27-2.1,9.81,8,25.36,9.41,38.61,12.6,5.22,1.26,11.23-.74,16.88-1.24-.73,6.37-.42,13.09-2.37,19.07-10.68,32.81-23.08,65.13-32.48,98.29-4.73,16.68,6.88,26.42,23.94,21.4,11.73-3.46,22.75-9.82,33.47-16,3.83-2.2,5.82-7.59,8.65-11.52-5.23-2.78-10.28-7.29-15.74-7.85s-11.09,3-18.76,5.32c.52-6.8.09-11.14,1.26-15q8.41-27.54,17.55-54.87c7.89-23.76,15.79-47.52,24.14-71.12,7-19.79,15.44-39.11,21.81-59.1,13.15-41.28,24.5-83.15,38.21-124.24,12-36,27.22-70.93,38.73-107.07C879.49,79.65,876.62,59.29,872.07,57.86ZM153,519.88c-15.4,24.74-30.44,49.83-47.78,73.17-15.66,21.1-33.42,40.84-51.84,59.63-9.3,9.49-24,4.05-26.46-11.12-3-18.68-5-39.13-.53-57.12,17.61-71,69.14-110.71,134-136.31,10.76-4.24,22.11-7,33.19-10.39l4.88,6.3C183.31,469.34,168.52,494.86,153,519.88ZM378.6,369c-30.78,4.88-61.29,11.43-92,16.82-7.74,1.36-15.79,1-23.94,1.43,3.39-41.65,222-352,252.34-355.14-3.81,14.45-6.47,28.05-11,41q-24.54,70.5-50.22,140.6c-7.26,19.77-16.45,38.84-23.9,58.56-8.73,23.14-17.43,46.36-24.36,70.07C401.25,357,394.88,366.37,378.6,369Zm23.5,255L395,622.51c-.85-5-3.74-10.83-2.22-15,12.56-34.64,43.46-75.78,62-77.26C436.07,563.53,419.09,593.73,402.1,623.93ZM476,453.13c-23.47,29.67-45.54,60.68-71.31,88.23-14,14.94-33.67,25.19-52.12,35.07-8.6,4.6-14.52-3.49-11.6-12.56,5.06-15.7,11.74-30.87,17.64-46.3,15.22-39.8,30.86-79.46,45.4-119.52,7.57-20.85,24.85-12.78,38.27-13.63,12.4-.78,11.06,10.08,11,19.21-.13,11.91,4.94,19.74,18.28,21.85,5.25.83,9.7,6.65,15.46,10.91C482.09,444,479.44,448.84,476,453.13Zm132.73-52.81c-3.72,4.69-17.88,8-21,5.15-14.71-13.5-1.1-24.82,7.46-42.05C601.25,379,622,383.67,608.77,400.32Zm135.88-35.06c-9.51,9-20.08,16.87-34.35,28.47-2.91-8.81-7-15.85-5.48-17.49a214.81,214.81,0,0,1,28.6-24.83c2.3-1.68,9.53-.29,11.4,2.1S746.79,363.25,744.65,365.26Z"/><path d="M1053.15,365.84c-2-3.12-11.21-5-15-3-11,5.68-20.75,13.72-31.22,20.46-4.74,3-10,5.19-15.09,7.75L986.1,387c4.34-11.56,9-23,12.92-34.72,2.4-7.13,4.64-14.58,4.88-22,.07-1.87-10.08-6.76-11.58-5.52-5.81,4.82-10.45,11.27-14.7,17.67-3.26,4.91-3.82,13-8.08,15.56-11.95,7.3-25.18,12.5-42.71,20.8,1-12.15.83-22.07,2.91-31.48,2.82-12.75,9-24.93,10.5-37.74.72-5.93-6-12.77-9.38-19.19-4.81,5.07-11.94,9.38-13.92,15.37-3.64,11.08-1.17,24.95-6.72,34.46C893.75,368.4,870.89,390.4,837,396.37c-4.57.8-10.1-3.86-15.19-6,3.38-3.78,6.06-9.32,10.29-11,10.89-4.39,23-5.87,33.64-10.74,15.36-7.05,18.95-26.92,8.91-41.7-5.9-8.68-28.83-12-37.6-4.06-19.24,17.4-35.8,35.9-34.91,65.14.89,29,9.79,37.83,37.91,30.36,14.79-3.93,29.07-9.71,43.58-14.65l4.85,3.77c-4,7.8-6.68,16.58-12.07,23.21-13.25,16.27-29.79,30.19-41.26,47.52-21.74,32.84-41.13,67.25-61,101.31-9.74,16.74.4,47.42,18,57.08,15.22,8.37,27.74.59,42-19.92,26.21-37.74,38.78-81,54-123.28,7.06-19.59,12.69-40,22.27-58.28,6.1-11.66,18-20.44,27.83-30,3.78-3.66,9-5.84,13.54-8.7,2.44,5.25,6.33,10.31,7,15.78,2.46,18.76,11.67,25.49,27.3,15.77,22.68-14.1,44.11-30.28,65.27-46.61C1054.46,379,1055.42,369.42,1053.15,365.84ZM857.41,336.37c9.69,5.95,4,21,4,21s-34.33,12.87-34.68,3.55C825.84,337.6,857.41,336.37,857.41,336.37Zm1.18,173.28c-12.48,29.61-25.14,59.18-38.88,88.22-2.66,5.62-10.27,8.89-15.61,13.24-1.63-6.7-5.09-13.54-4.6-20.08,2.81-37.39,29.24-63.22,47.31-93.11,1.26-2.07,5.25-2.49,12-5.43C858.82,500.47,860.26,505.71,858.59,509.65Z"/><path d="M989.14,289.06c4.08-17.42,6.53-32.26,23.85-30.37,7.84.86,21.59,16.92,20.52,18.67-6.84,11.17-17.06,20.27-26.17,30.05Z"/><path d="M925.88,258.33c2.91-18.67,1.9-35.55,21.21-32.21,6.7,1.16,14.71,12.34,16.48,20.2,2.53,11.27-16.33,31.25-24.75,27.54C932.15,270.92,928.35,261.51,925.88,258.33Z"/></g></g></svg>