<svg xmlns="http://www.w3.org/2000/svg" viewBox="0 0 3524.86 1212.47"><g id="Layer_2" data-name="Layer 2"><g id="Layer_1-2" data-name="Layer 1"><path d="M3505.86,700.45c-10.2,5.9-18,15.78-27.93,22.32-6.78,4.46-15.49,6-23.33,8.85-2.58-8.1-8-16.55-7.08-24.23,1.55-12.81,6-25.68,11.4-37.5,6.61-14.35,11.14-29.65-7.15-34.39-6.28-1.62-18.24,14.78-26,24.28-3.36,4.13-1.38,12.18-3.89,17.48-10.27,21.75-20.69,43.5-32.61,64.36-2.67,4.67-11.63,5.77-17.69,8.51-2.34-7-8-14.87-6.38-20.73,4-14.34,12.49-27.38,17.18-41.6,4.76-14.44,7.14-29.66,10.56-44.53l-9.66-3.69c-5.85,4.95-15.12,8.85-17,15-11.71,38.21-48.13,49.76-75.74,69.71-16.53,12-38.74,16.91-59.13,22.16-6.06,1.56-14.62-6.57-22-10.26,5.83-5.61,10.76-13.35,17.72-16.3,9.05-3.83,22-.78,29.19-6.17,14.17-10.68,32.47-23.51,36-38.48,3.18-13.71-8.49-42.79-18-44.81C3258,627,3235,634.9,3220.8,645.86c-25,19.35-45.4,44.62-67.84,67.31-26.7,27-53.29,54.13-80.47,80.66-6.53,6.38-15.18,10.6-22.85,15.82l-6.84-5c2.9-8.64,5.63-17.34,8.74-25.91,13.36-36.88,28.05-73.34,40-110.68,17.07-53.4,30.82-107.87,48.52-161,13.29-39.94,32-78.05,45.71-117.89,20-58.14,35.9-117.67,56.6-175.53,20.26-56.62,44.37-111.87,66.73-167.74,12.37-30.94-3.26-51.16-36.3-44.57-16.53,3.3-32.82,10.51-47.53,18.91-6.82,3.89-9.59,14.85-14.19,22.6,9.05,1.69,18.06,4.28,27.18,4.73,5.8.28,14.15-5.76,17.15-3.47,6.6,5,16.17,15.29,14.6,20.33-7.66,24.46-19.23,47.65-28.23,71.74q-36.28,97.16-71.5,194.73c-18.85,52.5-35.92,105.65-55.23,158-16.55,44.85-41,87.62-51.45,133.68-13.75,60.35-53.86,85.5-106.5,100.39-6.42,1.81-19.5-1-21-5-2.59-6.69-.14-16.81,3.31-24,5.53-11.56,14.81-21.32,20.34-32.87,12.28-25.61,3.52-51-19.25-59.67-22.11-8.38-45.67,6.08-55.29,31.46a703.12,703.12,0,0,1-31.53,70.09c-1.93,3.78-12.52,5.63-18,4.19-3.27-.86-6.72-10.22-6-15.16,2-13.92,8-27.42,8.8-41.3.54-8.77-3-20.24-9.08-26-3.45-3.28-15.79,1.77-23.7,4.36a195.15,195.15,0,0,0-30,12.3c-21.83,11.47-43.29,23.64-64.77,35.76-9,5.06-17.59,10.72-26.36,16.11-2.73-9.11-4.7-18.55-8.36-27.27-6.23-14.85-9.79-35.71-21.26-42.33-17-9.82-36.52-2.63-48.88,17.18-8.18,13.13-19.21,17.94-30.2.23-4.17-6.73-16-16.69-18.11-15.36-9.57,6-24.51,16.37-23.76,23.76,3.53,34.63-23.29,43.62-43.75,58.31-13.09,9.39-26.44,18.49-40.25,26.77-6.94,4.15-15.18,6.16-22.82,9.14,1-8.2.81-16.73,3.13-24.52,6.58-22.13,15.21-43.71,20.69-66.07,1.47-6-4.61-14.65-9-20.85-1.23-1.75-11-.84-12.93,1.75-31.21,42.45-53.56,88.76-52.55,142.65.43,22.39,20.15,33.62,41.44,23.69,18.05-8.42,33.73-21.83,50.69-32.69,13.53-8.66,27.4-16.79,38.77-23.72,10,16,16.38,26.23,22.74,36.43,8.54-7.48,18-14.13,25.4-22.62,16.43-18.93,31.2-39.3,47.91-58,5.27-5.89,14.54-8.22,22-12.17,2.43,8.14,8.16,17,6.54,24.28-2.75,12.27-11.84,23.06-15,35.31-2.42,9.27.17,19.84.53,29.83,9-1.35,19.05-.56,26.62-4.54,12.35-6.48,22.16-18.16,34.79-23.56,7.21-3.09,24.06-.69,25.92,3.72,7.39,17.5,18.4,21.14,35.91,20.08,5.58-.33,17.45,11.28,16.83,16.23-2.69,21.43-49.23,56.58-71.78,55.62-36.27-1.53-72.6-3-108.72-6.46-93-8.83-186.27-16.59-278.86-29-53.58-7.16-106-22.75-159.09-34-64.38-13.65-126.26-33.73-182.56-68.64-39.1-24.24-41.77-42.58-9.06-76.77,64-66.86,146-107.44,226.74-148.33,83.54-42.3,174.27-61.83,267.81-68.42,7.84-.55,22-11.08,21.32-14.32-2.27-10.18-8.74-20.73-16.56-27.92-5.07-4.66-15.78-6.2-23.19-4.87-63.26,11.38-127.66,19.17-189.14,36.94-80.55,23.29-156.2,59.89-226,107.32-4.64,3.16-12.77,1.21-19.27,1.64.22-7.44-1.51-15.65,1.08-22.15,4.76-12,15.87-22.55,17.08-34.44,1-9.41-6.76-22.76-14.8-29-5.78-4.48-22.29-3.9-27.26,1.11-11.65,11.73-21.89,26.43-28,41.79-22.14,55.49-42.93,111.54-63,167.82-8.29,23.23-13.37,47.59-20.06,71.39-13.78,49-29.69,97.49-39.89,147.18-2.21,10.77,13.16,30.55,25.39,37.54,17.32,9.91,27.37-6.68,32.39-21.7,3.41-10.21,3-21.61,5.29-32.27,6.08-28.42,11.8-57,19.39-85,6-22,17.33-27.77,36.74-10.07,10.9,9.93,24.7,18.55,38.71,22.9,75.76,23.52,151.14,49.31,228.33,67,73.49,16.82,148.75,27.22,223.78,35.6,71.17,7.95,143,9.84,214.62,13.94,20.19,1.15,22.91,10.73,13,25.44-24.09,35.75-48.55,71.31-57.84,114.33-4.77,22.08-14.8,46.31-9.69,66.33,5.36,21,22.21,45.06,40.9,55.2,23.53,12.79,39.1-12.69,52.66-30.1,39.56-50.76,59.9-110.15,74.55-171.6,9.64-40.41,28.93-58.35,69.91-59.93,16.18-.62,32.71.95,48.44-1.93,11.26-2,31.1-11.66,30.51-14.81-3.17-17-12-32.17-34.31-29.79-16.1,1.71-32.25,3.42-48.42,4-16.89.56-28.59-8.07-16.34-23.55,21.51-27.21,46.09-52.18,71.18-76.22,5-4.75,18-1,27.37-1.24-2.29,8.24-2.63,17.82-7.24,24.46-13.46,19.4-14.26,54.77.13,64.2,19.59,12.84,53.41,3,66.18-19.63,3.43-6.07,7.45-13.13,7.31-19.66-.65-29.43,20.17-35.33,51.43-45.34-7.08,25.57-15,43.25-16.06,61.33-.91,15.84.84,39.69,10.66,46.28,12.17,8.17,34.21,4.29,51.3,1.46,8.58-1.42,16.12-11.56,23.26-18.62,18-17.76,34.54-37.1,53.61-53.56,7.64-6.59,25.34-13.46,30-9.71,39.79,31.9,76.73,14.76,112.31-5.21,17.57-9.87,27.2-11.25,40,6.53,8.15,11.32,22.31,20.1,35.61,25.54,20.7,8.46,24.42,19.43,11.76,36.79-6.53,9-13.2,18-20.83,26-63.63,66.75-111.45,144.32-154,225.31-10.4,19.81-11.32,43,7.49,58.63,19.68,16.3,45.91,13.92,61-3.67,29.94-34.89,60.33-71.4,80.39-112.21,24.07-49,37-103.39,56-155,6.18-16.75,14-34.07,25.38-47.51,30.32-35.89,63.22-69.59,94.38-104.8,3.64-4.1,2.77-12.19,4-18.43C3518.42,701.68,3510.29,697.89,3505.86,700.45ZM2726.64,921.53c-21.59,50.32-43.83,100.4-67.38,149.83-5.17,10.84-16.44,18.78-24.89,28.05-4.51-12.19-9-24.39-12-32.58,7.43-56.25,32.17-98.07,62-137.58,6.07-8,11.22-17.21,18.78-23.46,5.83-4.81,14.78-5.85,22.34-8.57C2726,905.39,2729.52,914.82,2726.64,921.53ZM2743,731.16c-.92.56-12.84-13.39-12.19-14.13a276.6,276.6,0,0,1,30.49-29.47c.52-.44,7.37,6.6,18.75,17C2766.42,714.71,2755.16,723.68,2743,731.16Zm515.11-77.29c15.66,9.61,6.43,33.91,6.43,33.91s-55.48,20.8-56,5.74C3207.06,655.87,3258.08,653.87,3258.08,653.87Zm37,388.87c-8.06,17.14-19.87,32.83-31.9,47.64-3.75,4.62-13.64,4.27-20.71,6.19-1.34-6.45-6-15-3.48-19,22.09-34.74,45.48-68.66,68.49-102.82l10.09,4C3310.29,1000.17,3304.7,1022.38,3295.12,1042.74Z"/><path d="M2513.62,554.76l-52.53,50c-9.37-11.65-23.46-22.05-27-35.26-5.11-19.13,19-47.3,34.83-43C2481.83,530,2492.67,541,2513.62,554.76Z"/><path d="M1409.08,201.3c-23.9-7.48-26.32,19.17-32.13,34.63-35.2,93.73-69,188-103.49,282-8.27,22.55-20.25,44.24-25,67.44-5.93,29.06-21.58,43.24-49.24,50-18.28,4.44-36.12,12-53,20.51-25.11,12.62-48.67,28.32-73.87,40.72-20.93,10.29-33,.63-34.93-21.57a62.63,62.63,0,0,1,2.1-20.71c6-23.64-4.82-31.56-26.91-31-29.75.76-53.34,11.11-74.19,34-23.5,25.81-51.74,47.33-77.92,70.71l-9.33-6.2c3.34-21.12,8.22-42.16,9.33-63.4.54-10.28-6-20.93-9.38-31.42-7.75,7.93-17.89,14.61-22.82,24-16.7,31.91-31.06,65-47.67,97-2.5,4.79-12.29,5.8-18.7,8.57-.28-6.35-2.67-13.56-.48-18.89,10.22-24.93,22.8-48.94,32-74.19,2.58-7-3.4-17.19-5.45-25.92-8.1,2.06-18,2-23.81,6.77-6.53,5.42-9.7,15.12-13.75,23.25C735.81,697,713.07,701.44,682.2,679.5c14.68-32.39,31.31-64.38,43.87-97.9,19.76-52.72,35.51-106.94,55.24-159.68,32.35-86.45,71-170.91,85.43-262.91,2.46-15.66-1.12-38.14-11.21-47.86-7-6.74-35.24-2.6-44.83,6.41-38.57,36.21-77,73.58-109.09,115.44-47,61.35-89.83,126-132,190.88-66.77,102.81-131.32,207-197.34,310.33-6.21,9.71-14.82,20-24.82,24.69-15.92,7.5-35.29,7.94-50.84,15.93C236,806,173.58,835,116.88,872.36c-59.19,39-96.74,99.16-109.25,168.47C-1.43,1091-9.15,1145.07,26.19,1192.1c14.5,19.31,33.34,27.25,52.23,13.37,31.12-22.84,62-47.33,87.59-76,28-31.39,51.42-67.25,74-103C284.55,956.09,326.49,884,371.11,813.59c8.47-13.36,22.73-28.15,37-31.86,57.37-14.88,115.73-26,173.9-37.63,9.69-1.94,20.28.59,33,1.17-20.77,57.33-39.7,109.93-58.9,162.42-12.78,34.95-28.21,69.14-38,104.89-4.47,16.41-3.33,38.65,4.68,53,9.67,17.31,30,22.05,50.48,9.49,5-3.07,13.29-.83,20.06-1,.09,7.47,2.11,15.58-.09,22.31-6.62,20.26-7.55,42.65,13.47,49.68,16.27,5.44,37.49-2.25,56.07-6.19,5.88-1.25,10-9.61,15.47-14.09,55.48-45.7,73.85-113.78,94-176.14,22.74-70.39,57.11-130.2,104.53-184.57,4.73-5.42,13.48-11.95,18.89-10.84,5.08,1,10.06,11,11.9,17.94,8.93,33.53,29.69,45.29,60.21,28.69,19.82-10.78,37.83-26.27,53.75-42.49,27.11-27.6,52.83-26.57,81.22-3.4,15.85,12.94,41,15.21,62.39,20.36,8.44,2,18.15-1.19,27.28-2-1.19,10.3-.69,21.15-3.84,30.82-17.26,53-37.29,105.23-52.48,158.82-7.64,26.94,11.12,42.68,38.68,34.57,19-5.58,36.77-15.86,54.08-25.79,6.19-3.55,9.41-12.25,14-18.6-8.45-4.5-16.61-11.79-25.43-12.69-8.62-.88-17.92,4.76-30.32,8.59.84-11,.16-18,2-24.23,9-29.67,18.57-59.22,28.35-88.66,12.75-38.39,25.52-76.78,39-114.91,11.31-32,25-63.2,35.25-95.5,21.25-66.7,39.59-134.35,61.73-200.75,19.39-58.16,44-114.61,62.59-173C1421.07,236.51,1416.44,203.61,1409.08,201.3ZM247.14,947.83c-24.88,40-49.19,80.51-77.2,118.23-25.31,34.09-54,66-83.77,96.35-15,15.33-38.79,6.54-42.76-18-4.87-30.18-8-63.22-.85-92.28C71,937.39,154.27,873.26,259.11,831.9c17.38-6.85,35.73-11.25,53.63-16.79l7.89,10.18C296.19,866.17,272.3,907.4,247.14,947.83ZM611.74,704c-49.73,7.89-99,18.46-148.64,27.17-12.51,2.2-25.51,1.6-38.68,2.31C429.9,666.15,783,164.62,832.15,159.61,826,183,821.69,204.94,814.4,225.89Q774.76,339.8,733.27,453.07c-11.74,31.95-26.59,62.76-38.62,94.62-14.11,37.39-28.17,74.92-39.37,113.23C648.33,684.69,638.05,699.79,611.74,704Zm38,412-11.43-2.3c-1.37-8.15-6-17.49-3.58-24.26,20.3-56,70.23-122.44,100.15-124.83ZM769.19,840C731.26,887.92,695.6,938,654,982.54c-22.58,24.14-54.4,40.7-84.21,56.66-13.9,7.44-23.47-5.64-18.75-20.3,8.17-25.36,19-49.87,28.5-74.8,24.6-64.32,49.87-128.4,73.36-193.12,12.23-33.7,40.15-20.65,61.83-22,20-1.27,17.88,16.28,17.72,31-.22,19.23,8,31.89,29.54,35.3,8.47,1.34,15.66,10.75,25,17.62C779,825.18,774.67,833.05,769.19,840Zm214.46-85.32c-6,7.58-28.89,12.92-33.92,8.31-23.77-21.8-1.77-40.1,12-67.94C971.5,720.22,1005,727.75,983.65,754.65ZM1203.2,698c-15.36,14.54-32.45,27.25-55.51,46-4.7-14.23-11.37-25.6-8.84-28.25a345.11,345.11,0,0,1,46.21-40.12c3.71-2.72,15.4-.47,18.41,3.39C1206.66,683.08,1206.65,694.74,1203.2,698Z"/><path d="M1701.67,698.93c-3.21-5-18.12-8-24.22-4.87-17.77,9.17-33.52,22.16-50.45,33.05-7.65,4.91-16.22,8.39-24.37,12.53l-9.3-6.56c7-18.69,14.52-37.21,20.88-56.11,3.88-11.51,7.49-23.56,7.89-35.48.1-3-16.29-10.92-18.71-8.91-9.39,7.78-16.9,18.21-23.76,28.54-5.26,7.93-6.18,21-13.05,25.14-19.31,11.8-40.69,20.2-69,33.61,1.66-19.63,1.34-35.66,4.7-50.87,4.55-20.6,14.45-40.28,17-61,1.16-9.59-9.73-20.63-15.16-31-7.76,8.19-19.29,15.15-22.48,24.84-5.89,17.9-1.89,40.31-10.87,55.68-26.6,45.53-63.55,81.08-118.35,90.72-7.38,1.3-16.32-6.23-24.54-9.67,5.46-6.12,9.79-15.07,16.62-17.81,17.6-7.09,37.21-9.48,54.36-17.35,24.82-11.4,30.62-43.51,14.4-67.38-9.54-14-46.59-19.4-60.76-6.57-31.08,28.12-57.85,58-56.4,105.26,1.43,46.92,15.81,61.12,61.25,49,23.89-6.34,47-15.68,70.41-23.67l7.84,6.09c-6.38,12.6-10.8,26.79-19.51,37.5-21.41,26.29-48.12,48.78-66.66,76.79-35.13,53.06-66.45,108.66-98.5,163.7-15.74,27,.64,76.61,29,92.22,24.58,13.52,44.81.95,67.82-32.18,42.35-61,62.67-130.85,87.26-199.19,11.4-31.66,20.5-64.59,36-94.17,9.86-18.85,29.1-33,45-48.44,6.1-5.92,14.52-9.44,21.88-14.06,3.94,8.48,10.22,16.66,11.39,25.5,4,30.31,18.85,41.18,44.11,25.47,36.64-22.78,71.28-48.92,105.47-75.31C1703.78,720.18,1705.34,704.71,1701.67,698.93ZM1385.4,651.31c15.66,9.62,6.43,33.92,6.43,33.92s-55.48,20.8-56,5.74C1334.38,653.31,1385.4,651.31,1385.4,651.31Zm1.91,280c-20.18,47.85-40.63,95.62-62.83,142.55-4.29,9.07-16.6,14.36-25.22,21.39-2.64-10.83-8.22-21.88-7.43-32.45,4.53-60.41,47.24-102.15,76.44-150.44,2-3.35,8.48-4,19.41-8.78C1387.68,916.46,1390,924.93,1387.31,931.3Z"/><path d="M1598.25,574.87c6.58-28.14,10.55-52.13,38.52-49.06,12.67,1.38,34.9,27.32,33.16,30.16-11,18-27.56,32.74-42.28,48.55Z"/><path d="M1496,525.21c4.71-30.17,3.08-57.43,34.27-52,10.84,1.87,23.78,19.93,26.63,32.64,4.09,18.2-26.38,50.49-40,44.49C1506.16,545.55,1500,530.35,1496,525.21Z"/></g></g></svg>